<svg width="1200" height="720" viewBox="0 0 1200 720" fill="none" xmlns="http://www.w3.org/2000/svg" role="img" aria-labelledby="title desc">
  <title id="title">Divulgação profissional</title>
  <desc id="desc">Elementos de campanha com megafone, cards de conteúdo e calendário editorial.</desc>
  <rect width="1200" height="720" fill="#F8FBFF"/>
  <rect x="90" y="82" width="1020" height="556" rx="36" fill="#DCFCE7"/>
  <rect x="160" y="160" width="360" height="400" rx="28" fill="#FFFFFF"/>
  <path d="M242 376l122-66v-92l-122 66v92Z" fill="#075985"/>
  <path d="M364 218l84-44v180l-84-44V218Z" fill="#F59E0B"/>
  <rect x="226" y="382" width="74" height="108" rx="18" fill="#0F172A"/>
  <rect x="620" y="150" width="330" height="112" rx="24" fill="#FFFFFF"/>
  <rect x="620" y="304" width="420" height="112" rx="24" fill="#FFFFFF"/>
  <rect x="620" y="458" width="270" height="112" rx="24" fill="#FFFFFF"/>
  <path d="M670 206h208M670 360h282M670 514h160" stroke="#334155" stroke-width="22" stroke-linecap="round"/>
  <circle cx="994" cy="204" r="34" fill="#16A34A"/>
  <circle cx="994" cy="358" r="34" fill="#F59E0B"/>
</svg>
