<svg xmlns="http://www.w3.org/2000/svg" viewBox="0 0 920 760" role="img" aria-labelledby="hero-title">
  <title id="hero-title">Ilustracao de exames e resultados de saude</title>
  <defs>
    <linearGradient id="bg" x1="0" y1="0" x2="920" y2="760" gradientUnits="userSpaceOnUse">
      <stop stop-color="#ecfdf5"/>
      <stop offset="0.52" stop-color="#eff6ff"/>
      <stop offset="1" stop-color="#fff1ed"/>
    </linearGradient>
    <linearGradient id="card" x1="154" y1="84" x2="760" y2="700" gradientUnits="userSpaceOnUse">
      <stop stop-color="#ffffff"/>
      <stop offset="1" stop-color="#f8fbf9"/>
    </linearGradient>
  </defs>
  <rect width="920" height="760" rx="34" fill="url(#bg)"/>
  <circle cx="158" cy="154" r="88" fill="#ccfbf1" opacity="0.7"/>
  <circle cx="770" cy="154" r="100" fill="#bfdbfe" opacity="0.65"/>
  <circle cx="736" cy="604" r="122" fill="#fff1ed" opacity="0.9"/>
  <rect x="160" y="108" width="600" height="520" rx="34" fill="url(#card)" stroke="#d7e7e3" stroke-width="2"/>
  <rect x="206" y="158" width="230" height="38" rx="19" fill="#ecfdf5"/>
  <circle cx="230" cy="177" r="10" fill="#0f766e"/>
  <rect x="252" y="169" width="142" height="16" rx="8" fill="#a8c5bf"/>
  <rect x="504" y="158" width="174" height="38" rx="19" fill="#eff6ff"/>
  <rect x="530" y="169" width="108" height="16" rx="8" fill="#93c5fd"/>
  <rect x="206" y="238" width="206" height="230" rx="24" fill="#ffffff" stroke="#e7f1ef" stroke-width="2"/>
  <rect x="458" y="238" width="256" height="230" rx="24" fill="#ffffff" stroke="#e7f1ef" stroke-width="2"/>
  <path d="M250 386c26-72 56-72 82-2 16 42 38 44 58 6" fill="none" stroke="#0f766e" stroke-width="12" stroke-linecap="round"/>
  <circle cx="252" cy="386" r="9" fill="#0f766e"/>
  <circle cx="333" cy="384" r="9" fill="#2563eb"/>
  <circle cx="390" cy="390" r="9" fill="#f9735b"/>
  <rect x="244" y="278" width="104" height="16" rx="8" fill="#d7e7e3"/>
  <rect x="244" y="306" width="132" height="12" rx="6" fill="#eef8f6"/>
  <rect x="498" y="286" width="176" height="16" rx="8" fill="#d7e7e3"/>
  <rect x="498" y="324" width="148" height="12" rx="6" fill="#eef8f6"/>
  <rect x="498" y="356" width="188" height="12" rx="6" fill="#eef8f6"/>
  <rect x="498" y="388" width="112" height="12" rx="6" fill="#eef8f6"/>
  <rect x="206" y="508" width="508" height="72" rx="24" fill="#102a43"/>
  <rect x="248" y="532" width="146" height="12" rx="6" fill="#5eead4"/>
  <rect x="248" y="556" width="242" height="10" rx="5" fill="#dbeafe" opacity="0.55"/>
  <path d="M602 532v24M590 544h24" stroke="#ffffff" stroke-width="6" stroke-linecap="round"/>
  <rect x="650" y="529" width="34" height="30" rx="8" fill="#f9735b"/>
  <rect x="96" y="434" width="154" height="126" rx="24" fill="#ffffff" stroke="#e7f1ef" stroke-width="2"/>
  <path d="M148 490h50M173 465v50" stroke="#0f766e" stroke-width="10" stroke-linecap="round"/>
  <rect x="670" y="88" width="158" height="130" rx="26" fill="#ffffff" stroke="#e7f1ef" stroke-width="2"/>
  <rect x="708" y="126" width="82" height="12" rx="6" fill="#bfdbfe"/>
  <rect x="708" y="154" width="56" height="12" rx="6" fill="#ccfbf1"/>
  <path d="M720 184h54" stroke="#f9735b" stroke-width="8" stroke-linecap="round"/>
</svg>
